HIERARCHY
ROOT Hips
{
	OFFSET 0.00000 0.00000 0.00000
	CHANNELS 6 Xposition Yposition Zposition Zrotation Yrotation Xrotation 
	JOINT LHipJoint
	{
		OFFSET 0 0 0
		CHANNELS 3 Zrotation Yrotation Xrotation
		JOINT LeftHip
		{
			OFFSET 1.56857 -1.73443 1.15205
			CHANNELS 3 Zrotation Yrotation Xrotation
			JOINT LeftKnee
			{
				OFFSET 2.39362 -6.57643 0.00000
				CHANNELS 3 Zrotation Yrotation Xrotation
				JOINT LeftAnkle
				{
					OFFSET 2.50952 -6.89485 0.00000
					CHANNELS 3 Zrotation Yrotation Xrotation
					JOINT LeftToe
					{
						OFFSET 0.17171 -0.47178 1.88682
						CHANNELS 3 Zrotation Yrotation Xrotation
						End Site
						{
							OFFSET 0.00000 -0.00000 0.98146
						}
					}
				}
			}
		}
	}
	JOINT RHipJoint
	{
		OFFSET 0 0 0
		CHANNELS 3 Zrotation Yrotation Xrotation
		JOINT RightHip
		{
			OFFSET -1.28153 -1.73443 1.15205
			CHANNELS 3 Zrotation Yrotation Xrotation
			JOINT RightKnee
			{
				OFFSET -2.26861 -6.23296 0.00000
				CHANNELS 3 Zrotation Yrotation Xrotation
				JOINT RightAnkle
				{
					OFFSET -2.54143 -6.98254 0.00000
					CHANNELS 3 Zrotation Yrotation Xrotation
					JOINT RightToe
					{
						OFFSET -0.23309 -0.64041 1.93119
						CHANNELS 3 Zrotation Yrotation Xrotation
						End Site
						{
							OFFSET -0.00000 -0.00000 1.02013
						}
					}
				}
			}
		}
	}
	JOINT lowerback
	{
		OFFSET 0 0 0
		CHANNELS 3 Zrotation Yrotation Xrotation
		JOINT Chest
		{
			OFFSET -0.07096 2.10460 -0.27878
			CHANNELS 3 Zrotation Yrotation Xrotation
			JOINT Chest2
			{
				OFFSET -0.00826 2.13662 -0.08279
				CHANNELS 3 Zrotation Yrotation Xrotation
				JOINT lowerneck
				{
					OFFSET 0 0 0
					CHANNELS 3 Zrotation Yrotation Xrotation
					JOINT Neck
					{
						OFFSET 0.03239 1.77799 0.24435
						CHANNELS 3 Zrotation Yrotation Xrotation
						JOINT Head
						{
							OFFSET 0.01026 1.74194 -0.49664
							CHANNELS 3 Zrotation Yrotation Xrotation
							End Site
							{
								OFFSET 0.00170 1.83057 -0.19653
							}
						}
					}
				}
				JOINT LeftCollar
				{
					OFFSET 0 0 0
					CHANNELS 3 Zrotation Yrotation Xrotation
					JOINT LeftShoulder
					{
						OFFSET 3.19178 1.35907 -0.31412
CHANNELS 3 Zrotation Xrotation Yrotation
						JOINT LeftElbow
						{
OFFSET 0 -4.852470 -0.000000
CHANNELS 3 Zrotation Xrotation Yrotation
							JOINT LeftWrist
							{
OFFSET 0 -3.555840 0.000000
CHANNELS 3 Zrotation Xrotation Yrotation
								JOINT lhand
								{
									OFFSET 0 0 0
CHANNELS 3 Zrotation Xrotation Yrotation
									JOINT LFingers
									{
OFFSET 0 -0.693200 0.000000
CHANNELS 3 Zrotation Xrotation Yrotation
										End Site
										{
OFFSET 0 -0.558880 0.000000
										}
									}
								}
								JOINT LThumb
								{
OFFSET 0 0.000000 0.000000
CHANNELS 3 Zrotation Xrotation Yrotation
									End Site
									{
OFFSET 0 -0.567410 0.567410
									}
								}
							}
						}
					}
				}
				JOINT RightCollar
				{
					OFFSET 0 0 0
					CHANNELS 3 Zrotation Yrotation Xrotation
					JOINT RightShoulder
					{
						OFFSET -3.28999 1.24191 -0.26899
CHANNELS 3 Zrotation Xrotation Yrotation
						JOINT RightElbow
						{
OFFSET 0 -4.644620 0.000000
CHANNELS 3 Zrotation Xrotation Yrotation
							JOINT RightWrist
							{
OFFSET 0 -3.407030 0.000000
CHANNELS 3 Zrotation Xrotation Yrotation
								JOINT rhand
								{
									OFFSET 0 0 0
CHANNELS 3 Zrotation Xrotation Yrotation
									JOINT RFingers
									{
OFFSET 0 -0.619580 0.000000
CHANNELS 3 Zrotation Xrotation Yrotation
										End Site
										{
OFFSET 0 -0.499520 0.000000
										}
									}
								}
								JOINT RThumb
								{
OFFSET 0 0.000000 0.000000
CHANNELS 3 Zrotation Xrotation Yrotation
									End Site
									{
OFFSET 0 -0.507150 0.507150
									}
								}
							}
						}
					}
				}
			}
		}
	}
}
MOTION
Frames: 7
Frame Time: 0.008333333333333333
-37.915800 16.756800 7.891400 -17.187100 53.013500 -18.414800 0.000000 0.000000 0.000000 -18.421500 10.784700 -3.956200 2.139500 9.150900 26.268500 0.734000 5.322400 -18.978900 0.145400 2.457400 6.771600 0.000000 0.000000 0.000000 -1.521200 -22.651500 -26.089400 -4.275600 -12.518400 37.591400 -0.965800 -11.688200 -26.185600 -3.142700 -10.922600 32.019300 -8.321300 2.186100 15.776900 -3.480900 1.500600 3.787100 0.698800 0.876000 -4.897700 -0.990300 5.087600 -26.600600 1.017700 7.081600 16.481300 1.600800 3.340400 9.445100 -0.000000 0.000000 0.000000 38.809400 -38.363800 -41.724600 43.667600 -50.098800 21.211600 38.833200 -34.555900 22.822100 0.000000 0.000000 0.000000 -7.125000 0.000000 0.000000 5.961000 1.735200 5.809600 -0.000000 0.000000 0.000000 -29.388000 9.673700 -3.270800 -15.536100 -24.887600 -3.448400 -21.808200 2.083000 34.699300 0.000000 0.000000 0.000000 7.125000 0.000000 -0.000000 14.924400 66.120400 -7.679800
-37.759789 16.921254 7.913944 -17.076806 52.877249 -18.741103 0.000000 0.000000 0.000000 -18.081545 12.094402 -2.597189 1.981423 8.826393 25.254294 0.328928 6.586206 -15.147154 0.051991 1.429811 3.933223 0.000000 0.000000 0.000000 -0.872546 -22.622040 -27.235457 -4.440593 -12.724439 38.345857 -0.773952 -13.146908 -26.085545 -2.211574 -9.270787 26.664179 -8.732659 2.086224 16.034134 -3.424226 1.284053 3.860839 1.026091 0.775316 -4.948356 -0.919704 5.323278 -26.563057 0.838427 7.428830 16.898138 1.590291 3.475753 9.592399 0.000000 0.000000 0.000000 40.412263 -39.821160 -41.401890 44.354426 -50.447737 21.739990 38.880174 -35.293023 23.016373 0.000000 0.000000 0.000000 -7.125000 0.000000 0.000000 5.948785 1.493055 5.823522 0.000000 0.000000 0.000000 -30.515195 9.763516 -4.689719 -15.154470 -24.360558 -3.289605 -23.166672 4.623995 34.907494 0.000000 0.000000 0.000000 7.125000 0.000000 0.000000 13.459495 66.717769 -7.095545
-37.602902 17.086106 7.935134 -16.807723 52.847705 -18.820783 0.000000 0.000000 0.000000 -17.938681 12.427648 -0.956437 1.697129 8.197690 23.320011 0.000224 8.034680 -11.258710 0.229333 2.965281 8.189326 0.000000 0.000000 0.000000 -0.326698 -22.696820 -28.557502 -4.621273 -12.943537 39.158447 -0.861297 -13.553746 -27.144862 -2.269247 -9.403942 27.068734 -9.189010 1.979500 16.165708 -3.471393 1.058188 3.909016 1.273430 0.670013 -4.952348 -0.735632 5.564451 -26.334634 0.557303 7.755435 16.936720 1.507954 3.604816 9.584095 0.000000 0.000000 0.000000 42.152890 -41.167513 -40.973826 45.145650 -50.838401 22.351994 38.982015 -35.559198 23.015944 0.000000 0.000000 0.000000 -7.125000 0.000000 0.000000 6.009514 1.461857 5.886975 0.000000 0.000000 0.000000 -31.440999 10.151955 -5.523735 -15.083647 -24.262497 -3.260213 -24.484134 6.433404 35.328149 0.000000 0.000000 0.000000 7.125000 0.000000 0.000000 12.209280 67.520271 -6.648496
-37.446806 17.250106 7.955873 -16.586465 52.914035 -18.876147 0.000000 0.000000 0.000000 -17.722821 13.167030 0.157668 1.551009 7.859343 22.288273 -0.147591 8.436768 -8.211614 0.272469 3.357659 9.276097 0.000000 0.000000 0.000000 0.088286 -22.538316 -29.911151 -4.869033 -13.233060 40.250224 -0.888644 -13.777177 -27.573085 -2.185783 -9.240953 26.553351 -9.616460 1.825230 16.225305 -3.520519 0.781685 3.945313 1.514643 0.538423 -4.921690 -0.474058 5.833550 -26.131874 0.123978 8.131976 17.072079 1.372331 3.740852 9.626939 0.000000 0.000000 0.000000 43.862590 -42.399176 -40.504161 45.878762 -51.190579 22.921840 39.225951 -35.715768 23.162155 0.000000 0.000000 0.000000 -7.125000 0.000000 0.000000 6.123740 1.213731 6.027600 0.000000 0.000000 0.000000 -32.332646 10.794223 -5.768335 -15.272169 -24.523551 -3.338278 -25.719540 7.591787 35.687912 0.000000 0.000000 0.000000 7.125000 0.000000 0.000000 10.963533 68.249069 -6.143503
-37.290382 17.414196 7.978783 -16.462528 53.048100 -19.069940 0.000000 0.000000 0.000000 -17.319507 14.055146 1.015489 1.473436 7.669711 21.715629 -0.230405 8.827371 -5.024663 0.330040 3.681324 10.183021 0.000000 0.000000 0.000000 0.483446 -22.320763 -30.951286 -5.073827 -13.465702 41.139181 -0.937768 -13.859027 -28.008268 -2.107527 -9.086440 26.066177 -9.995106 1.647732 16.340336 -3.552576 0.477938 3.998464 1.751961 0.392956 -4.896191 -0.268329 6.114605 -25.907587 -0.259545 8.534661 17.173138 1.265202 3.892741 9.651208 0.000000 0.000000 0.000000 45.548038 -43.560178 -40.074668 46.503736 -51.483381 23.409750 39.555372 -36.078799 23.536351 0.000000 0.000000 0.000000 -7.125000 0.000000 0.000000 6.238948 0.669399 6.202927 0.000000 0.000000 0.000000 -33.265921 11.502516 -5.660215 -15.515253 -24.858663 -3.439862 -26.879141 8.169869 35.826747 0.000000 0.000000 0.000000 7.125000 0.000000 0.000000 9.560509 68.744805 -5.459318
-37.130560 17.578814 8.003099 -16.272492 53.149874 -19.219198 0.000000 0.000000 0.000000 -16.928695 14.811014 1.784542 1.415233 7.523406 21.275868 -0.295078 9.971090 -1.556737 0.822456 5.525532 15.481319 0.000000 0.000000 0.000000 0.810057 -21.978024 -31.856213 -5.268917 -13.679193 41.969621 -1.048317 -13.272707 -28.254074 -2.396889 -9.624631 27.788642 -10.369195 1.498052 16.401692 -3.616516 0.219698 4.071814 1.943950 0.267191 -4.821000 0.311277 6.459402 -25.875833 -0.973894 8.972915 17.379805 1.001653 4.039159 9.786208 0.000000 0.000000 0.000000 47.495818 -44.689592 -39.688345 47.280441 -51.835641 24.019394 39.892833 -36.719363 23.737195 0.000000 0.000000 0.000000 -7.125000 0.000000 0.000000 6.394908 0.323961 6.398834 0.000000 0.000000 0.000000 -34.148795 12.143775 -5.635905 -15.724259 -25.145118 -3.528097 -27.637764 8.236191 35.743777 0.000000 0.000000 0.000000 7.125000 0.000000 0.000000 8.460025 68.898637 -4.860118
-36.973579 17.742978 8.025908 -16.146369 53.234507 -19.365133 0.000000 0.000000 0.000000 -16.497378 15.385783 2.379365 1.378115 7.428595 20.991642 -0.352006 11.080210 -0.188202 1.021914 6.326753 17.769495 0.000000 0.000000 0.000000 1.195590 -21.524036 -32.767120 -5.464801 -13.888085 42.792546 -1.070153 -12.843200 -28.004164 -2.599045 -10.011346 29.017470 -10.678588 1.362356 16.424335 -3.691016 -0.004852 4.146751 2.082062 0.156055 -4.724588 0.538563 6.643602 -25.592530 -1.401452 9.240479 17.308611 0.849430 4.130031 9.747880 0.000000 0.000000 0.000000 49.161948 -45.739110 -39.075771 48.238457 -52.257499 24.774830 39.826529 -36.625662 23.642963 0.000000 0.000000 0.000000 -7.125000 0.000000 0.000000 6.375986 0.455715 6.365392 0.000000 0.000000 0.000000 -34.900529 12.677993 -5.976213 -15.902656 -25.388268 -3.604185 -27.760196 7.898066 35.448088 0.000000 0.000000 0.000000 7.125000 0.000000 0.000000 8.019940 68.641322 -4.559057
